<?xml version="1.0" encoding="iso-8859-1"?>
<!-- Generator: Adobe Illustrator 19.0.0, SVG Export Plug-In . SVG Version: 6.00 Build 0)  -->
<svg version="1.1" id="Capa_1" xmlns="http://www.w3.org/2000/svg" xmlns:xlink="http://www.w3.org/1999/xlink" x="0px" y="0px"
	 viewBox="0 0 480 480" style="enable-background:new 0 0 480 480;" xml:space="preserve">
<g>
	<g>
		<path d="M475.994,247.4l-68-39.4l68-39.392c2.473-1.428,3.997-4.065,4-6.92c-0.003-2.855-1.527-5.492-4-6.92l-152-88
			c-2.475-1.429-5.525-1.429-8,0l-16,9.256c-3.915,2.048-5.428,6.882-3.38,10.797s6.882,5.428,10.797,3.38
			c0.199-0.104,0.394-0.217,0.584-0.337l12-6.936l136,78.76l-64,37.072l-96.608-55.936l7.2-10.24
			c2.532-3.621,1.649-8.609-1.972-11.14c-1.354-0.947-2.968-1.451-4.62-1.444h-24c-0.075-66.243-53.757-119.925-120-120h-80
			c-4.418,0-8,3.582-8,8s3.582,8,8,8h80c57.41,0.066,103.934,46.59,104,104v8c0,4.418,3.582,8,8,8h16.64l-40.64,58.048L199.354,136
			h16.64c4.418,0,8-3.582,8-8v-16c-0.026-26.499-21.501-47.974-48-48h-40c-4.418,0-8,3.582-8,8s3.582,8,8,8h40
			c17.673,0,32,14.327,32,32v8h-24c-4.418,0.002-7.998,3.586-7.996,8.004c0.001,1.638,0.505,3.237,1.444,4.58l7.16,10.24
			L87.994,198.76l-64-37.072L125.49,102.92c3.915-2.048,5.428-6.882,3.38-10.797c-2.048-3.915-6.882-5.429-10.797-3.381
			c-0.199,0.104-0.394,0.217-0.584,0.337L3.994,154.768c-3.822,2.217-5.123,7.112-2.906,10.934c0.699,1.205,1.701,2.207,2.906,2.906
			l68,39.392l-68,39.392c-3.822,2.217-5.123,7.112-2.906,10.934c0.699,1.205,1.701,2.207,2.906,2.906l76,44V384
			c0.003,2.855,1.527,5.492,4,6.92l152,88c0.184,0.112,0.4,0.152,0.592,0.248c0.192,0.096,0.44,0.192,0.672,0.28
			c1.755,0.736,3.733,0.736,5.488,0c0.232-0.088,0.448-0.176,0.672-0.28s0.408-0.136,0.592-0.248l152-88
			c2.467-1.432,3.984-4.068,3.984-6.92v-78.76l76-44c3.822-2.217,5.123-7.112,2.906-10.934
			C478.2,249.101,477.199,248.099,475.994,247.4z M23.994,254.312l64-37.072l136,78.76l-64,37.072L23.994,254.312z M231.994,458.128
			l-136-78.736v-64.888l60,34.728c2.475,1.429,5.525,1.429,8,0l68-39.36V458.128z M239.994,286.76l-136-78.76l89.856-52
			l39.592,56.584c2.535,3.619,7.524,4.497,11.142,1.962c0.763-0.535,1.427-1.199,1.962-1.962L286.178,156l89.856,52L239.994,286.76z
			 M383.994,379.392l-136,78.736V309.872l68,39.36c2.475,1.429,5.525,1.429,8,0l60-34.728V379.392z M319.994,333.072l-64-37.072
			l136-78.76l64,37.072L319.994,333.072z"/>
	</g>
</g>
<g>
	<g>
		<path d="M103.994,64h-16c-4.418,0-8,3.582-8,8s3.582,8,8,8h16c4.418,0,8-3.582,8-8S108.412,64,103.994,64z"/>
	</g>
</g>
<g>
	<g>
		<path d="M39.994,0h-16c-4.418,0-8,3.582-8,8s3.582,8,8,8h16c4.418,0,8-3.582,8-8S44.412,0,39.994,0z"/>
	</g>
</g>
<g>
	<g>
		<path d="M119.994,32h-64c-4.418,0-8,3.582-8,8s3.582,8,8,8h64c4.418,0,8-3.582,8-8S124.412,32,119.994,32z"/>
	</g>
</g>
<g>
	<g>
		<path d="M359.994,344c-4.418,0-8,3.582-8,8v16c0,4.418,3.582,8,8,8s8-3.582,8-8v-16C367.994,347.582,364.412,344,359.994,344z"/>
	</g>
</g>
<g>
	<g>
		<path d="M327.994,360c-4.418,0-8,3.582-8,8v16c0,4.418,3.582,8,8,8s8-3.582,8-8v-16C335.994,363.582,332.412,360,327.994,360z"/>
	</g>
</g>
<g>
</g>
<g>
</g>
<g>
</g>
<g>
</g>
<g>
</g>
<g>
</g>
<g>
</g>
<g>
</g>
<g>
</g>
<g>
</g>
<g>
</g>
<g>
</g>
<g>
</g>
<g>
</g>
<g>
</g>
</svg>
